<svg width="32" height="32" viewBox="0 0 32 32" fill="none" xmlns="http://www.w3.org/2000/svg">
  <!-- Background circle with gradient -->
  <defs>
    <linearGradient id="bgGradient" x1="0%" y1="0%" x2="100%" y2="100%">
      <stop offset="0%" style="stop-color:#1a1a2e"/>
      <stop offset="100%" style="stop-color:#0f0f1e"/>
    </linearGradient>
    <linearGradient id="starGradient" x1="0%" y1="0%" x2="100%" y2="100%">
      <stop offset="0%" style="stop-color:#a855f7"/>
      <stop offset="50%" style="stop-color:#8b5cf6"/>
      <stop offset="100%" style="stop-color:#7c3aed"/>
    </linearGradient>
  </defs>
  
  <!-- Background -->
  <rect width="32" height="32" rx="6" fill="url(#bgGradient)"/>
  
  <!-- Left brace -->
  <path d="M6 10C6 9.44772 6.44772 9 7 9H8V11H7C6.44772 11 6 10.5523 6 10Z" fill="#6b7280"/>
  <path d="M6 14V13H7C7.55228 13 8 12.5523 8 12V11H7C6.44772 11 6 11.4477 6 12V14Z" fill="#6b7280"/>
  <path d="M6 18V20C6 20.5523 6.44772 21 7 21H8V23H7C6.44772 23 6 22.5523 6 22V18Z" fill="#6b7280"/>
  <path d="M8 21H7C6.44772 21 6 20.5523 6 20V18C6 17.4477 6.44772 17 7 17H8V19H7C6.44772 19 6 19.4477 6 20C6 20.5523 6.44772 21 7 21Z" fill="#6b7280"/>
  
  <!-- Simplified left brace -->
  <path d="M7 10V12C7 13 6 13 6 14V16V18C6 19 7 19 7 20V22" stroke="#6b7280" stroke-width="1.5" fill="none" stroke-linecap="round"/>
  
  <!-- Right brace -->
  <path d="M25 10V12C25 13 26 13 26 14V16V18C26 19 25 19 25 20V22" stroke="#6b7280" stroke-width="1.5" fill="none" stroke-linecap="round"/>
  
  <!-- Star in the center -->
  <path d="M16 11L17.236 14.764H21L18.382 16.472L19.618 20.236L16 18.528L12.382 20.236L13.618 16.472L11 14.764H14.764L16 11Z" fill="url(#starGradient)" stroke="#a855f7" stroke-width="0.5"/>
  
  <!-- Small sparkles around the star -->
  <circle cx="12" cy="13" r="0.8" fill="#8b5cf6" opacity="0.7"/>
  <circle cx="20" cy="13" r="0.8" fill="#8b5cf6" opacity="0.7"/>
  <circle cx="13" cy="19" r="0.6" fill="#a855f7" opacity="0.6"/>
  <circle cx="19" cy="19" r="0.6" fill="#a855f7" opacity="0.6"/>
</svg>